<?xml version="1.0" encoding="UTF-8"?>
<svg width="550.99994px" height="504.004976px" viewBox="0 0 550.99994 504.004976" version="1.1" xmlns="http://www.w3.org/2000/svg" xmlns:xlink="http://www.w3.org/1999/xlink">
    <title>loading-logo</title>
    <g id="User-experience" stroke="none" stroke-width="1" fill="none" fill-rule="evenodd" fill-opacity="0.195066652" opacity="0.312244234" stroke-opacity="0.157206075">
        <g id="Step-1---Intro" transform="translate(-744, -401.001)" fill="#FFFFFF" stroke="#FFFFFF">
            <path d="M935.883071,401.598868 L1019.72794,546.390743 L1027.09319,533.499974 L1027.60129,533.499928 L1103.84799,401.83232 C1123.10298,408.010876 1141.43168,416.247986 1158.57335,426.28364 L1096.4847,533.499946 L1208.08862,533.500928 L1231.41752,569.158771 L1174.22267,668.603945 L1294.49014,668.605167 C1294.07302,689.058094 1291.40996,708.96121 1286.73673,728.079336 L1140.01764,728.076949 L1138.69844,730.373292 L1126.27621,730.385829 L1204.64437,865.717493 C1189.86698,879.135666 1173.61741,890.970099 1156.1656,900.951649 L1098.18154,800.821632 L1038.56101,904.488112 L999.324074,902.111131 L941.364429,801.371768 L883.485448,901.322836 C866.010174,891.390992 849.732924,879.604275 834.923321,866.231533 L913.682867,730.22206 L900.437916,730.235702 L899.195115,728.076949 L752.263275,728.079336 C747.590042,708.96121 744.926979,689.058094 744.509864,668.605167 L864.977542,668.603945 L793.576436,544.501214 L799.869009,533.500928 L943.380357,533.499948 L881.073753,425.905971 C898.246526,415.914829 916.603238,407.725772 935.883071,401.598868 Z M1020.87142,547.106824 L993.5482,594.472931 L888.747442,594.473291 L931.396851,668.602954 L932.852597,668.602954 L940.735236,682.139224 L939.954045,683.476022 L941.079952,685.432627 L915.999385,728.911959 L967.97367,728.911666 L975.670809,742.12862 L974.681688,743.836104 L1018.75241,820.432896 L1063.60958,741.615269 L1071.00556,728.911666 L1126.07967,728.911959 L1098.83331,681.109292 L1102.26817,675.207459 L1148.70334,594.473291 L1048.52923,594.472931 L1047.96526,593.512486 L1020.87142,547.106824 Z" id="loading-logo"></path>
        </g>
    </g>
</svg>