<?xml version="1.0" encoding="UTF-8"?>
<svg width="17px" height="17px" viewBox="0 0 17 17" version="1.1" xmlns="http://www.w3.org/2000/svg" xmlns:xlink="http://www.w3.org/1999/xlink">
    <title>instagram-icon</title>
    <g id="Symbols" stroke="none" stroke-width="1" fill="none" fill-rule="evenodd">
        <g id="about-and-discord" transform="translate(-206, -14)" fill="#FFFFFF" fill-rule="nonzero">
            <g id="instagram-icon" transform="translate(206, 14)">
                <path d="M12.308514,0 L4.69128485,0 C2.10451195,0 0,2.10461251 0,4.69138541 L0,12.3086146 C0,14.895488 2.10451195,17 4.69128485,17 L12.308514,17 C14.895488,17 17,14.8953875 17,12.3086146 L17,4.69138541 C17,2.10461251 14.895488,0 12.308514,0 Z M15.5833333,12.3585427 C15.5833333,14.1367364 14.1366449,15.5833333 12.358464,15.5833333 L4.64133223,15.5833333 C2.86325323,15.5833333 1.41666667,14.1367364 1.41666667,12.3585427 L1.41666667,4.64145729 C1.41666667,2.8633655 2.86325323,1.41666667 4.64133223,1.41666667 L12.3583622,1.41666667 C14.136543,1.41666667 15.5833333,2.8633655 15.5833333,4.64145729 L15.5833333,12.3585427 L15.5833333,12.3585427 Z" id="Shape"></path>
                <path d="M8.5,4 C6.01866263,4 4,6.01870897 4,8.5001033 C4,10.9813943 6.01866263,13 8.5,13 C10.9813374,13 13,10.9813943 13,8.5001033 C13,6.01870897 10.9813374,4 8.5,4 Z M8.5,11.5 C6.84586703,11.5 5.5,10.1542959 5.5,8.50010503 C5.5,6.84580912 6.845762,5.5 8.5,5.5 C10.154238,5.5 11.5,6.84580912 11.5,8.50010503 C11.5,10.1542959 10.154133,11.5 8.5,11.5 Z" id="Shape"></path>
                <path d="M12,3 C11.7372727,3 11.4791818,3.10636364 11.2936364,3.29272727 C11.1071818,3.47818182 11,3.73636364 11,4 C11,4.26281818 11.1072727,4.52090909 11.2936364,4.70727273 C11.4790909,4.89272727 11.7372727,5 12,5 C12.2636364,5 12.5209091,4.89272727 12.7072727,4.70727273 C12.8936364,4.52090909 13,4.26272727 13,4 C13,3.73636364 12.8936364,3.47818182 12.7072727,3.29272727 C12.5218182,3.10636364 12.2636364,3 12,3 Z" id="Path"></path>
            </g>
        </g>
    </g>
</svg>