<?xml version="1.0" encoding="UTF-8"?>
<svg width="102px" height="117px" viewBox="0 0 102 117" version="1.1" xmlns="http://www.w3.org/2000/svg" xmlns:xlink="http://www.w3.org/1999/xlink">
    <title>loading</title>
    <defs>
        <path d="M37.6830321,-5.69422276e-13 L50.9759928,22.954 L52.091,21.000134 L52.2919928,21 L64.4342319,0.0372488974 C67.5635375,1.03611833 70.5404166,2.37459433 73.3212286,4.00917474 L63.4779928,21 L81.053,21.0002825 L84.825,26.7742825 L75.7079928,42.651 L95.0000072,42.651103 C94.9383459,45.9733688 94.5061776,49.2053533 93.74296,52.3077246 L70.1629928,52.307 L69.988,52.612134 L68.1549928,52.614 L80.6703893,74.2221471 C78.2738426,76.4041936 75.6343508,78.3255474 72.7970705,79.9411955 L63.5059928,63.9 L54.013,80.4312825 L47.661,80.0462825 L38.5069928,64.111 L29.3059842,79.9996948 C26.4653479,78.3922547 23.8217565,76.4788708 21.4202986,74.3044886 L33.9959928,52.588 L31.888,52.590134 L31.7249928,52.307 L8.25704005,52.3077246 C7.49382235,49.2053533 7.06165413,45.9733688 6.99999276,42.651103 L26.1779928,42.651 L14.796,22.8372825 L15.845,21.0002825 L38.6579928,21 L28.7818056,3.94879846 C31.5678495,2.321299 34.5494782,0.990525886 37.6830321,-5.69422276e-13 Z M51.1599928,23.387 L46.833,30.9002825 L30.2074774,30.9010579 L36.9569928,42.651 L37.2069928,42.651 L38.51234,44.8917936 L38.3769928,45.122 L38.509,45.3522825 L34.5189928,52.281 L42.81634,52.2807936 L44.0909928,54.47 L43.9179928,54.768 L50.8075035,66.7599124 L58.945,52.5882825 L58.9999928,52.588 L59.17934,52.2807936 L67.8259928,52.281 L63.467,44.7132825 L71.3996845,30.9010579 L55.511,30.9002825 L52.9429928,26.441 L51.1599928,23.387 Z" id="path-1"></path>
        <filter x="-11.5%" y="-12.9%" width="122.9%" height="125.8%" filterUnits="objectBoundingBox" id="filter-2">
            <feMorphology radius="2" operator="dilate" in="SourceAlpha" result="shadowSpreadOuter1"></feMorphology>
            <feOffset dx="0" dy="0" in="shadowSpreadOuter1" result="shadowOffsetOuter1"></feOffset>
            <feMorphology radius="3" operator="erode" in="SourceAlpha" result="shadowInner"></feMorphology>
            <feOffset dx="0" dy="0" in="shadowInner" result="shadowInner"></feOffset>
            <feComposite in="shadowOffsetOuter1" in2="shadowInner" operator="out" result="shadowOffsetOuter1"></feComposite>
            <feGaussianBlur stdDeviation="2" in="shadowOffsetOuter1" result="shadowBlurOuter1"></feGaussianBlur>
            <feColorMatrix values="0 0 0 0 1   0 0 0 0 1   0 0 0 0 1  0 0 0 0.249125874 0" type="matrix" in="shadowBlurOuter1"></feColorMatrix>
        </filter>
    </defs>
    <g id="User-experience" stroke="none" stroke-width="1" fill="none" fill-rule="evenodd">
        <g id="Loading" transform="translate(-669.000000, -447.000000)">
            <g id="loading" transform="translate(669.000000, 453.999866)">
                <g id="Group" transform="translate(0.000000, -0.000000)">
                    <g id="Combined-Shape">
                        <use fill="black" fill-opacity="1" filter="url(#filter-2)" xlink:href="#path-1"></use>
                        <path stroke="#FFFFFF" stroke-width="1" d="M59.4677986,52.7808005 L67.674,52.781 L80.0347022,74.1222255 C78.0648548,75.8828483 75.9330406,77.4670428 73.664266,78.8498643 L72.9795498,79.2586447 L63.5041314,62.8991819 L53.7337916,79.9134419 L47.9602955,79.5635055 L38.5087359,63.1102442 L29.1227927,79.318292 C26.8240898,77.9827506 24.6593354,76.4431845 22.6534969,74.7244995 L22.0565378,74.2035454 L34.461,52.781 L42.4909562,52.7808017 L43.4714209,54.9944011 L50.8061177,67.7612063 L59.4677986,52.7808005 Z M37.4522862,0.599270858 L50.616,23.33 L46.5439573,30.400296 L29.3276551,30.4010989 L36.7661535,42.8879528 L37.9439585,45.3315522 L34.053,52.088 L31.893975,52.0901697 L8.65188719,51.8124076 C8.05152338,49.2737008 7.67500215,46.648867 7.54416814,43.959744 L7.51231039,43.1511002 L27.0418418,43.1509954 L15.3722016,22.8365427 L16.1352613,21.5002789 L39.5254056,21.4999893 L29.4655762,4.13173005 C31.9813857,2.70048133 34.6543488,1.51229436 37.4522862,0.599270858 Z M64.6615648,0.636597239 C67.2025048,1.47355134 69.6397625,2.5376337 71.9491485,3.80471287 L72.638104,4.19090239 L62.6104926,21.4999861 L80.7823973,21.5002782 L84.2387601,26.7911157 L74.844303,43.1509954 L94.4876896,43.1511002 C94.4062571,45.8513486 94.0772307,48.4895611 93.5224183,51.0439367 L93.3492229,51.8077125 L70.1249991,51.8069988 L68.291,52.087 L64.0438035,44.7129196 L72.2634171,30.4011 L55.8000514,30.4002966 L53.3762812,26.1914783 L51.519,23.01 L52.5218582,21.2538291 L64.6615648,0.636597239 Z" stroke-linejoin="square"></path>
                    </g>
                    <text id="INITIALIZING…" opacity="0.297107515" font-family="RobotoMono-Medium, Roboto Mono" font-size="11" font-weight="400" letter-spacing="1.1733337" fill="#DEDEDE">
                        <tspan x="0" y="106.421634">INITIALIZING…</tspan>
                    </text>
                </g>
            </g>
        </g>
    </g>
</svg>