<?xml version="1.0" encoding="UTF-8"?>
<svg width="344px" height="58px" viewBox="0 0 344 58" version="1.1" xmlns="http://www.w3.org/2000/svg" xmlns:xlink="http://www.w3.org/1999/xlink">
    <title>ui-center-scan</title>
    <g id="ui-center-scan" stroke="none" stroke-width="1" fill="none" fill-rule="evenodd">
        <g id="Group" transform="translate(39.000000, 8.000000)">
            <path d="M8,0 L255.87094,0 L262.445793,0 C264.961012,-7.56746564e-15 267,2.03898809 267,4.55420736 L267,9.10841473 L267,30.5033447 L267,35.2516723 C267,37.8741013 264.874101,40 262.251672,40 L254.010196,40 L8,40 C3.581722,40 -1.23527384e-15,36.418278 0,32 L0,8 C-5.41083001e-16,3.581722 3.581722,8.11624501e-16 8,0 Z" id="Rectangle" fill-opacity="0.559413243" fill="#000000" opacity="0.514439174"></path>
            <g id="SEARCHING-GLYPH…" transform="translate(47.227000, 11.854000)" fill="#FFFFFF" fill-rule="nonzero">
                <path d="M1.42108547e-14,11.022 L1.42108547e-14,10.23 C1.42108547e-14,10.0686667 0.0806666667,9.988 0.242,9.988 L0.88,9.988 C1.04133333,9.988 1.122,10.0686667 1.122,10.23 L1.122,10.956 C1.122,12.4226667 1.83333333,13.156 3.256,13.156 L5.544,13.156 C6.96666667,13.156 7.678,12.4153333 7.678,10.934 L7.678,10.01 C7.678,9.36466667 7.414,8.85866667 6.886,8.492 C6.358,8.12533333 5.72,7.86133333 4.972,7.7 C4.224,7.53866667 3.47233333,7.37 2.717,7.194 C1.96166667,7.018 1.32,6.69533333 0.792,6.226 C0.264,5.75666667 1.42108547e-14,5.126 1.42108547e-14,4.334 L1.42108547e-14,3.124 C1.42108547e-14,2.156 0.278666667,1.39333333 0.836,0.836 C1.39333333,0.278666667 2.14866667,0 3.102,0 L5.654,0 C6.60733333,0 7.36266667,0.278666667 7.92,0.836 C8.47733333,1.39333333 8.756,2.156 8.756,3.124 L8.756,3.74 C8.756,3.90133333 8.67533333,3.982 8.514,3.982 L7.876,3.982 C7.71466667,3.982 7.634,3.90133333 7.634,3.74 L7.634,3.19 C7.634,1.72333333 6.92266667,0.99 5.5,0.99 L3.234,0.99 C1.826,0.99 1.122,1.738 1.122,3.234 L1.122,4.334 C1.122,5.346 2.024,6.028 3.828,6.38 C4.576,6.52666667 5.32766667,6.69533333 6.083,6.886 C6.83833333,7.07666667 7.48,7.42133333 8.008,7.92 C8.536,8.41866667 8.8,9.09333333 8.8,9.944 L8.8,11.022 C8.8,11.99 8.52133333,12.7526667 7.964,13.31 C7.40666667,13.8673333 6.65133333,14.146 5.698,14.146 L3.102,14.146 C2.14866667,14.146 1.39333333,13.8673333 0.836,13.31 C0.278666667,12.7526667 1.42108547e-14,11.99 1.42108547e-14,11.022 Z" id="S" transform="translate(4.400000, 7.073000) rotate(-360.000000) translate(-4.400000, -7.073000) "></path>
                <path d="M19.47,14.146 L12.672,14.146 C12.5253333,14.146 12.452,14.058 12.452,13.882 L12.452,0.264 C12.452,0.088 12.5253333,0 12.672,0 L19.47,0 C19.646,0 19.734,0.0806666667 19.734,0.242 L19.734,0.748 C19.734,0.909333333 19.646,0.99 19.47,0.99 L13.772,0.99 C13.6253333,0.99 13.552,1.056 13.552,1.188 L13.552,6.248 C13.552,6.38 13.6253333,6.446 13.772,6.446 L18.854,6.446 C19.0153333,6.446 19.096,6.52666667 19.096,6.688 L19.096,7.194 C19.096,7.35533333 19.0153333,7.436 18.854,7.436 L13.772,7.436 C13.6253333,7.436 13.552,7.502 13.552,7.634 L13.552,12.958 C13.552,13.09 13.6253333,13.156 13.772,13.156 L19.47,13.156 C19.646,13.156 19.734,13.2366667 19.734,13.398 L19.734,13.904 C19.734,14.0653333 19.646,14.146 19.47,14.146 Z" id="E" transform="translate(16.093000, 7.073000) rotate(-360.000000) translate(-16.093000, -7.073000) "></path>
                <path d="M22.66,14.146 L21.978,14.146 C21.8166667,14.146 21.7653333,14.058 21.824,13.882 L26.202,0.264 C26.246,0.088 26.3486667,0 26.51,0 L27.544,0 C27.6906667,0 27.7933333,0.088 27.852,0.264 L32.23,13.882 C32.274,14.058 32.2226667,14.146 32.076,14.146 L31.372,14.146 C31.2253333,14.146 31.13,14.058 31.086,13.882 L29.898,10.362 L24.134,10.362 L22.946,13.882 C22.8873333,14.058 22.792,14.146 22.66,14.146 Z M26.972,1.21 L24.442,9.372 L29.612,9.372 L27.06,1.21 L26.972,1.21 Z" id="A" transform="translate(27.022882, 7.073000) rotate(-360.000000) translate(-27.022882, -7.073000) "></path>
                <path d="M35.618,14.146 L34.98,14.146 C34.8333333,14.146 34.76,14.058 34.76,13.882 L34.76,0.264 C34.76,0.088 34.8333333,0 34.98,0 L39.996,0 C40.9493333,0 41.7046667,0.278666667 42.262,0.836 C42.8193333,1.39333333 43.098,2.156 43.098,3.124 L43.098,5.214 C43.098,6.03533333 42.889,6.71 42.471,7.238 C42.053,7.766 41.4846667,8.10333333 40.766,8.25 L40.766,8.338 L43.384,13.882 C43.472,14.058 43.4206667,14.146 43.23,14.146 L42.548,14.146 C42.3573333,14.146 42.2253333,14.058 42.152,13.882 L39.556,8.338 L36.08,8.338 C35.9333333,8.338 35.86,8.404 35.86,8.536 L35.86,13.882 C35.86,14.058 35.7793333,14.146 35.618,14.146 Z M36.08,7.392 L39.886,7.392 C40.5606667,7.392 41.0813333,7.205 41.448,6.831 C41.8146667,6.457 41.998,5.92533333 41.998,5.236 L41.998,3.168 C41.998,2.47866667 41.8146667,1.94333333 41.448,1.562 C41.0813333,1.18066667 40.5606667,0.99 39.886,0.99 L36.08,0.99 C35.9333333,0.99 35.86,1.056 35.86,1.188 L35.86,7.194 C35.86,7.326 35.9333333,7.392 36.08,7.392 Z" id="R" transform="translate(39.092842, 7.073000) rotate(-360.000000) translate(-39.092842, -7.073000) "></path>
                <path d="M52.14,14.146 L49.368,14.146 C48.4146667,14.146 47.663,13.8673333 47.113,13.31 C46.563,12.7526667 46.288,11.99 46.288,11.022 L46.288,3.124 C46.288,2.156 46.563,1.39333333 47.113,0.836 C47.663,0.278666667 48.4146667,0 49.368,0 L52.14,0 C53.0933333,0 53.845,0.278666667 54.395,0.836 C54.945,1.39333333 55.22,2.156 55.22,3.124 L55.22,4.202 C55.22,4.378 55.1393333,4.466 54.978,4.466 L54.362,4.466 C54.2006667,4.466 54.12,4.378 54.12,4.202 L54.12,3.168 C54.12,2.464 53.9403333,1.925 53.581,1.551 C53.2216667,1.177 52.7046667,0.99 52.03,0.99 L49.456,0.99 C48.7813333,0.99 48.268,1.18066667 47.916,1.562 C47.564,1.94333333 47.388,2.47866667 47.388,3.168 L47.388,10.978 C47.388,11.6673333 47.564,12.2026667 47.916,12.584 C48.268,12.9653333 48.7813333,13.156 49.456,13.156 L52.03,13.156 C52.7046667,13.156 53.2216667,12.969 53.581,12.595 C53.9403333,12.221 54.12,11.682 54.12,10.978 L54.12,9.944 C54.12,9.768 54.2006667,9.68 54.362,9.68 L54.978,9.68 C55.1393333,9.68 55.22,9.768 55.22,9.944 L55.22,11.022 C55.22,11.99 54.945,12.7526667 54.395,13.31 C53.845,13.8673333 53.0933333,14.146 52.14,14.146 Z" id="C" transform="translate(50.754000, 7.073000) rotate(-360.000000) translate(-50.754000, -7.073000) "></path>
                <path d="M59.29,14.146 L58.652,14.146 C58.5053333,14.146 58.432,14.058 58.432,13.882 L58.432,0.264 C58.432,0.088 58.5053333,0 58.652,0 L59.29,0 C59.4513333,0 59.532,0.088 59.532,0.264 L59.532,6.27 C59.532,6.402 59.6053333,6.468 59.752,6.468 L65.912,6.468 C66.0586667,6.468 66.132,6.402 66.132,6.27 L66.132,0.264 C66.132,0.088 66.2053333,0 66.352,0 L66.99,0 C67.1513333,0 67.232,0.088 67.232,0.264 L67.232,13.882 C67.232,14.058 67.1513333,14.146 66.99,14.146 L66.352,14.146 C66.2053333,14.146 66.132,14.058 66.132,13.882 L66.132,7.656 C66.132,7.524 66.0586667,7.458 65.912,7.458 L59.752,7.458 C59.6053333,7.458 59.532,7.524 59.532,7.656 L59.532,13.882 C59.532,14.058 59.4513333,14.146 59.29,14.146 Z" id="H" transform="translate(62.832000, 7.073000) rotate(-360.000000) translate(-62.832000, -7.073000) "></path>
                <path d="M72.182,0.264 L72.182,13.882 C72.182,14.058 72.1013333,14.146 71.94,14.146 L71.302,14.146 C71.1553333,14.146 71.082,14.058 71.082,13.882 L71.082,0.264 C71.082,0.088 71.1553333,0 71.302,0 L71.94,0 C72.1013333,0 72.182,0.088 72.182,0.264 Z" id="I" transform="translate(71.632000, 7.073000) rotate(-360.000000) translate(-71.632000, -7.073000) "></path>
                <path d="M76.89,14.146 L76.252,14.146 C76.1053333,14.146 76.032,14.058 76.032,13.882 L76.032,0.264 C76.032,0.088 76.1053333,0 76.252,0 L76.846,0 C76.978,0 77.066,0.044 77.11,0.132 L83.864,11.748 L83.952,11.748 L83.952,0.264 C83.952,0.088 84.0326667,0 84.194,0 L84.81,0 C84.9713333,0 85.052,0.088 85.052,0.264 L85.052,13.882 C85.052,14.058 84.9713333,14.146 84.81,14.146 L84.304,14.146 C84.172,14.146 84.0546667,14.0653333 83.952,13.904 L77.22,2.376 L77.132,2.376 L77.132,13.882 C77.132,14.058 77.0513333,14.146 76.89,14.146 Z" id="N" transform="translate(80.542000, 7.073000) rotate(-360.000000) translate(-80.542000, -7.073000) "></path>
                <path d="M94.028,14.146 L91.63,14.146 C90.6766667,14.146 89.925,13.8673333 89.375,13.31 C88.825,12.7526667 88.55,11.99 88.55,11.022 L88.55,3.124 C88.55,2.156 88.825,1.39333333 89.375,0.836 C89.925,0.278666667 90.6766667,0 91.63,0 L94.028,0 C94.9813333,0 95.7366667,0.278666667 96.294,0.836 C96.8513333,1.39333333 97.13,2.156 97.13,3.124 L97.13,4.114 C97.13,4.29 97.0493333,4.378 96.888,4.378 L96.25,4.378 C96.0886667,4.378 96.008,4.29 96.008,4.114 L96.008,3.168 C96.008,2.464 95.832,1.925 95.48,1.551 C95.128,1.177 94.6146667,0.99 93.94,0.99 L91.718,0.99 C91.0433333,0.99 90.53,1.18066667 90.178,1.562 C89.826,1.94333333 89.65,2.47866667 89.65,3.168 L89.65,10.978 C89.65,11.6673333 89.826,12.2026667 90.178,12.584 C90.53,12.9653333 91.0433333,13.156 91.718,13.156 L93.94,13.156 C94.6146667,13.156 95.128,12.969 95.48,12.595 C95.832,12.221 96.008,11.682 96.008,10.978 L96.008,8.074 C96.008,7.942 95.942,7.876 95.81,7.876 L93.28,7.876 C93.1186667,7.876 93.038,7.79533333 93.038,7.634 L93.038,7.128 C93.038,6.96666667 93.1186667,6.886 93.28,6.886 L96.712,6.886 C96.9906667,6.886 97.13,7.03266667 97.13,7.326 L97.13,11.022 C97.13,11.99 96.8513333,12.7526667 96.294,13.31 C95.7366667,13.8673333 94.9813333,14.146 94.028,14.146 Z" id="G" transform="translate(92.840000, 7.073000) rotate(-360.000000) translate(-92.840000, -7.073000) "></path>
                <path d="M111.76,14.146 L109.362,14.146 C108.408667,14.146 107.657,13.8673333 107.107,13.31 C106.557,12.7526667 106.282,11.99 106.282,11.022 L106.282,3.124 C106.282,2.156 106.557,1.39333333 107.107,0.836 C107.657,0.278666667 108.408667,0 109.362,0 L111.76,0 C112.713333,0 113.468667,0.278666667 114.026,0.836 C114.583333,1.39333333 114.862,2.156 114.862,3.124 L114.862,4.114 C114.862,4.29 114.781333,4.378 114.62,4.378 L113.982,4.378 C113.820667,4.378 113.74,4.29 113.74,4.114 L113.74,3.168 C113.74,2.464 113.564,1.925 113.212,1.551 C112.86,1.177 112.346667,0.99 111.672,0.99 L109.45,0.99 C108.775333,0.99 108.262,1.18066667 107.91,1.562 C107.558,1.94333333 107.382,2.47866667 107.382,3.168 L107.382,10.978 C107.382,11.6673333 107.558,12.2026667 107.91,12.584 C108.262,12.9653333 108.775333,13.156 109.45,13.156 L111.672,13.156 C112.346667,13.156 112.86,12.969 113.212,12.595 C113.564,12.221 113.74,11.682 113.74,10.978 L113.74,8.074 C113.74,7.942 113.674,7.876 113.542,7.876 L111.012,7.876 C110.850667,7.876 110.77,7.79533333 110.77,7.634 L110.77,7.128 C110.77,6.96666667 110.850667,6.886 111.012,6.886 L114.444,6.886 C114.722667,6.886 114.862,7.03266667 114.862,7.326 L114.862,11.022 C114.862,11.99 114.583333,12.7526667 114.026,13.31 C113.468667,13.8673333 112.713333,14.146 111.76,14.146 Z" id="G" transform="translate(110.572000, 7.073000) rotate(-360.000000) translate(-110.572000, -7.073000) "></path>
                <path d="M125.576,14.146 L118.58,14.146 C118.433333,14.146 118.36,14.058 118.36,13.882 L118.36,0.264 C118.36,0.088 118.433333,0 118.58,0 L119.218,0 C119.379333,0 119.46,0.088 119.46,0.264 L119.46,12.914 C119.46,13.046 119.533333,13.112 119.68,13.112 L125.576,13.112 C125.752,13.112 125.84,13.1926667 125.84,13.354 L125.84,13.904 C125.84,14.0653333 125.752,14.146 125.576,14.146 Z" id="L" transform="translate(122.100000, 7.073000) rotate(-360.000000) translate(-122.100000, -7.073000) "></path>
                <path d="M132.154,14.146 L131.516,14.146 C131.354667,14.146 131.274,14.058 131.274,13.882 L131.274,8.8 L127.006,0.264 C126.918,0.088 126.969333,0 127.16,0 L127.952,0 C128.084,0 128.186667,0.088 128.26,0.264 L131.78,7.458 L131.89,7.458 L135.388,0.264 C135.461333,0.088 135.564,0 135.696,0 L136.51,0 C136.671333,0 136.722667,0.088 136.664,0.264 L132.374,8.8 L132.374,13.882 C132.374,14.058 132.300667,14.146 132.154,14.146 Z" id="Y" transform="translate(131.825891, 7.073000) rotate(-360.000000) translate(-131.825891, -7.073000) "></path>
                <path d="M139.986,14.146 L139.348,14.146 C139.201333,14.146 139.128,14.058 139.128,13.882 L139.128,0.264 C139.128,0.088 139.201333,0 139.348,0 L144.408,0 C145.361333,0 146.116667,0.278666667 146.674,0.836 C147.231333,1.39333333 147.51,2.156 147.51,3.124 L147.51,5.698 C147.51,6.666 147.231333,7.42866667 146.674,7.986 C146.116667,8.54333333 145.361333,8.822 144.408,8.822 L140.448,8.822 C140.301333,8.822 140.228,8.88066667 140.228,8.998 L140.228,13.882 C140.228,14.058 140.147333,14.146 139.986,14.146 Z M140.448,7.81 L144.32,7.81 C144.994667,7.81 145.508,7.623 145.86,7.249 C146.212,6.875 146.388,6.34333333 146.388,5.654 L146.388,3.168 C146.388,2.464 146.212,1.925 145.86,1.551 C145.508,1.177 144.994667,0.99 144.32,0.99 L140.448,0.99 C140.301333,0.99 140.228,1.056 140.228,1.188 L140.228,7.634 C140.228,7.75133333 140.301333,7.81 140.448,7.81 Z" id="P" transform="translate(143.319000, 7.073000) rotate(-360.000000) translate(-143.319000, -7.073000) "></path>
                <path d="M151.514,14.146 L150.876,14.146 C150.729333,14.146 150.656,14.058 150.656,13.882 L150.656,0.264 C150.656,0.088 150.729333,0 150.876,0 L151.514,0 C151.675333,0 151.756,0.088 151.756,0.264 L151.756,6.27 C151.756,6.402 151.829333,6.468 151.976,6.468 L158.136,6.468 C158.282667,6.468 158.356,6.402 158.356,6.27 L158.356,0.264 C158.356,0.088 158.429333,0 158.576,0 L159.214,0 C159.375333,0 159.456,0.088 159.456,0.264 L159.456,13.882 C159.456,14.058 159.375333,14.146 159.214,14.146 L158.576,14.146 C158.429333,14.146 158.356,14.058 158.356,13.882 L158.356,7.656 C158.356,7.524 158.282667,7.458 158.136,7.458 L151.976,7.458 C151.829333,7.458 151.756,7.524 151.756,7.656 L151.756,13.882 C151.756,14.058 151.675333,14.146 151.514,14.146 Z" id="H" transform="translate(155.056000, 7.073000) rotate(-360.000000) translate(-155.056000, -7.073000) "></path>
                <path d="M164.032,11.264 L164.032,13.882 C164.032,14.058 163.958667,14.146 163.812,14.146 L163.042,14.146 C162.880667,14.146 162.8,14.058 162.8,13.882 L162.8,11.264 C162.8,11.1026667 162.880667,11.022 163.042,11.022 L163.812,11.022 C163.958667,11.022 164.032,11.1026667 164.032,11.264 Z M168.454,11.264 L168.454,13.882 C168.454,14.058 168.380667,14.146 168.234,14.146 L167.464,14.146 C167.302667,14.146 167.222,14.058 167.222,13.882 L167.222,11.264 C167.222,11.1026667 167.302667,11.022 167.464,11.022 L168.234,11.022 C168.380667,11.022 168.454,11.1026667 168.454,11.264 Z M172.854,11.264 L172.854,13.882 C172.854,14.058 172.780667,14.146 172.634,14.146 L171.842,14.146 C171.695333,14.146 171.622,14.058 171.622,13.882 L171.622,11.264 C171.622,11.1026667 171.695333,11.022 171.842,11.022 L172.634,11.022 C172.780667,11.022 172.854,11.1026667 172.854,11.264 Z" id="…" transform="translate(167.827000, 12.584000) rotate(-360.000000) translate(-167.827000, -12.584000) "></path>
            </g>
        </g>
    </g>
</svg>