<?xml version="1.0" encoding="UTF-8"?>
<svg width="376px" height="465px" viewBox="0 0 376 465" version="1.1" xmlns="http://www.w3.org/2000/svg" xmlns:xlink="http://www.w3.org/1999/xlink">
    <title>ui-top-right</title>
    <g id="ui-top-right" stroke="none" stroke-width="1" fill="none" fill-rule="evenodd">
        <path d="M366.573599,13.7021681 L366.573599,138.534999 L329.975421,170.702168 L215.426401,170.702168 L215.426401,13.7021681 L366.573599,13.7021681 Z" id="Rectangle" stroke-opacity="0.408735795" stroke="#FFFFFF" fill-opacity="0.607435533" fill="#000000" transform="translate(291, 92.2022) rotate(-270) translate(-291, -92.2022)"></path>
        <path d="M367.240374,204.368943 L367.240374,300.593384 L339.051996,325.368943 L250.759626,325.368943 L250.759626,204.368943 L367.240374,204.368943 Z" id="Rectangle" stroke-opacity="0.408735795" stroke="#FFFFFF" fill-opacity="0.607435533" fill="#000000" transform="translate(309, 264.8689) rotate(-270) translate(-309, -264.8689)"></path>
        <text id="3:05-PM" font-family="RobotoMono-Medium, Roboto Mono" font-size="10" font-weight="400" fill="#DEDEDE">
            <tspan x="327" y="10">3:05 PM</tspan>
        </text>
        <text id="01" font-family="RobotoMono-Medium, Roboto Mono" font-size="10" font-weight="400" fill="#DEDEDE">
            <tspan x="232" y="10">01</tspan>
        </text>
        <text id="QUEST-INFORMATIONS" opacity="0.650692894" font-family="RobotoMono-Medium, Roboto Mono" font-size="10" font-weight="400" fill="#DEDEDE">
            <tspan x="261.982422" y="373.5785">QUEST INFORMATIONS</tspan>
        </text>
        <text id="CURRENT-GLYPH" opacity="0.650692894" font-family="RobotoMono-Medium, Roboto Mono" font-size="10" font-weight="400" fill="#DEDEDE">
            <tspan x="291.987305" y="197.5785">CURRENT GLYPH</tspan>
        </text>
        <text id="Find-a-way-out" font-family="RobotoMono-Medium, Roboto Mono" font-size="22" font-weight="400" fill="#DEDEDE">
            <tspan x="185.169922" y="414.5785">Find a way out</tspan>
        </text>
        <g id="Group-4" opacity="0.307105655" transform="translate(167, 80.5785) scale(-1, 1) translate(-167, -80.5785)translate(146, 74.5785)" fill="#FFFFFF" fill-rule="nonzero">
            <polygon id="Path" points="0 12 1.97530864 12 1.97530864 10.5 6.02469136 10.5 6.02469136 12 8 12 8 9 0 9"></polygon>
            <polygon id="Path" points="16 12 17.9771863 12 17.9771863 10.5 40.0228137 10.5 40.0228137 12 42 12 42 9 16 9"></polygon>
            <rect id="Rectangle" x="0" y="0" width="8" height="6"></rect>
            <rect id="Rectangle" x="16" y="0" width="4" height="6"></rect>
        </g>
        <g id="Group-10" transform="translate(33, 15.5785)">
            <text id="SERVER-1.22.0" fill-rule="nonzero" font-family="Rajdhani-SemiBold, Rajdhani" font-size="17" font-weight="500" fill="#FFFFFF">
                <tspan x="30" y="16">SERVER 1.22.0</tspan>
            </text>
            <rect id="Rectangle" fill-opacity="0.178485577" fill="#FF0E00" x="0" y="2" width="4" height="17"></rect>
            <rect id="Rectangle" fill-opacity="0.178485577" fill="#FF0E00" x="151" y="2" width="4" height="17"></rect>
            <rect id="Rectangle" fill-opacity="0.0644940997" fill="#FF0E00" transform="translate(77.5, 10.5) scale(-1, 1) translate(-77.5, -10.5)" x="0" y="2" width="155" height="17"></rect>
        </g>
        <g id="Group-10" transform="translate(53, 41.5785)">
            <text id="YOLO-13.21.9" fill-rule="nonzero" font-family="Rajdhani-SemiBold, Rajdhani" font-size="17" font-weight="500" fill="#FFFFFF">
                <tspan x="26.207" y="16">YOLO 13.21.9</tspan>
            </text>
            <rect id="Rectangle" fill-opacity="0.178485577" fill="#FF0E00" x="0" y="2" width="3" height="17"></rect>
            <rect id="Rectangle" fill-opacity="0.178485577" fill="#FF0E00" x="132" y="2" width="3" height="17"></rect>
            <rect id="Rectangle" fill-opacity="0.0644940997" fill="#FF0E00" transform="translate(67.5, 10.5) scale(-1, 1) translate(-67.5, -10.5)" x="0" y="2" width="135" height="17"></rect>
        </g>
        <text id="/-05" fill-rule="nonzero" font-family="Rajdhani-Light, Rajdhani" font-size="10" font-weight="300" fill="#FFFFFF">
            <tspan x="304" y="314.5785">/ 05</tspan>
        </text>
        <g id="Group-9" transform="translate(212, 1.5785)" stroke="#979797">
            <rect id="Rectangle" x="0.5" y="0.5" width="14" height="9" rx="1"></rect>
            <polyline id="Path-49" points="14 9 8.76764211 4 7.02063187 5.47194852 5.25104995 4 -2.38775887e-16 9"></polyline>
            <line x1="4.64285714" y1="4.58333333" x2="0.357142857" y2="0.416666667" id="Path-50"></line>
            <line x1="14" y1="5" x2="9.35714286" y2="0.416666667" id="Path-50" transform="translate(11.5, 2.5) scale(-1, 1) translate(-11.5, -2.5)"></line>
        </g>
    </g>
</svg>