<?xml version="1.0" encoding="UTF-8"?>
<svg width="318px" height="270.5785px" viewBox="0 0 318 270.5785" version="1.1" xmlns="http://www.w3.org/2000/svg" xmlns:xlink="http://www.w3.org/1999/xlink">
    <title>ui-top-left</title>
    <g id="ui-top-left" stroke="none" stroke-width="1" fill="none" fill-rule="evenodd">
        <path d="M121.024672,-47.1711992 L121.024672,140.156581 L113.426221,149.878145 L91.0246721,149.878145 L91.0246721,-47.1711992 L121.024672,-47.1711992 Z" id="Rectangle" stroke-opacity="0.408735795" stroke="#FFFFFF" fill-opacity="0.607435533" fill="#000000" transform="translate(106.0247, 51.3535) scale(-1, 1) rotate(-270) translate(-106.0247, -51.3535)"></path>
        <polygon id="Rectangle" fill-opacity="0.353993663" fill="#FFFFFF" opacity="0.44375465" transform="translate(88.5, 51.3535) scale(-1, 1) rotate(-270) translate(-88.5, -51.3535)" points="73 -30.1465272 104 -30.1465272 104 124.582589 97.8892795 132.853473 73 132.853473"></polygon>
        <text id="datablockS" font-family="RobotoMono-Medium, Roboto Mono" font-size="10" font-weight="400" fill="#DEDEDE">
            <tspan x="7" y="99">DATABLOCKS</tspan>
        </text>
        <text id="User-327" font-family="RobotoMono-Medium, Roboto Mono" font-size="10" font-weight="400" fill="#DEDEDE">
            <tspan x="8" y="10">USER 327</tspan>
        </text>
        <g id="Group-8" transform="translate(7.3074, 137)">
            <text id="RECORDING…" font-family="RobotoMono-Medium, Roboto Mono" font-size="10" font-weight="400" fill="#DEDEDE">
                <tspan x="18.6925676" y="10">RECORDING…</tspan>
            </text>
            <circle id="Oval" fill="#FF0000" cx="5.5" cy="7.0785" r="5.5"></circle>
        </g>
        <text id="87-%" opacity="0.458775112" fill-rule="nonzero" font-family="RobotoMono-Bold, Roboto Mono" font-size="10" font-weight="bold" fill="#FFFFFF">
            <tspan x="99.9960938" y="147.5785">87 %</tspan>
        </text>
        <text id="287" fill-rule="nonzero" font-family="RobotoMono-Bold, Roboto Mono" font-size="10" font-weight="bold" fill="#FFFFFF">
            <tspan x="286" y="25.5785">287</tspan>
        </text>
        <text id="22" fill-rule="nonzero" font-family="RobotoMono-Bold, Roboto Mono" font-size="8" font-weight="bold" fill="#FFFFFF">
            <tspan x="308" y="29.5785">22</tspan>
        </text>
        <text id="sys://" fill-rule="nonzero" font-family="RobotoMono-Medium, Roboto Mono" font-size="17" font-weight="400" fill="#FFFFFF">
            <tspan x="17" y="56.5785">sys://</tspan>
        </text>
        <g id="Rectangle" opacity="0.33" transform="translate(0, 258.5785)">
            <g id="Mask" opacity="0" fill="#FFFFFF">
                <polyline id="Fill-977" points="0.373 1.5 0.627 1.754 0.627 1.246 0.373 1.5"></polyline>
                <polyline id="Fill-978" points="94 0 112.086619 12 114 12 95.9133807 0 94 0"></polyline>
                <polyline id="Fill-979" points="88 0 106.086619 12 108 12 89.9133807 0 88 0"></polyline>
                <polyline id="Fill-980" points="83 0 101.086619 12 103 12 84.9133807 0 83 0"></polyline>
                <polyline id="Fill-981" points="77 0 95.0864818 12 97 12 78.9135182 0 77 0"></polyline>
                <polyline id="Fill-982" points="72 0 90.0864818 12 92 12 73.9120816 0 72 0"></polyline>
                <polyline id="Fill-983" points="66 0 84.0864818 12 86 12 67.9135182 0 66 0"></polyline>
                <polyline id="Fill-984" points="61 0 79.0864818 12 81 12 62.9135182 0 61 0"></polyline>
                <polyline id="Fill-985" points="55 0 73.0866193 12 75 12 56.9133807 0 55 0"></polyline>
                <polyline id="Fill-986" points="49 0 67.0866193 12 69 12 50.9133807 0 49 0"></polyline>
                <polyline id="Fill-987" points="44 0 62.0866193 12 64 12 45.9133807 0 44 0"></polyline>
                <polyline id="Fill-988" points="38 0 56.0866193 12 58 12 39.9133807 0 38 0"></polyline>
                <polyline id="Fill-989" points="33 0 51.0866193 12 53 12 34.9133807 0 33 0"></polyline>
                <polyline id="Fill-990" points="26 0 44.0864818 12 46 12 27.9135182 0 26 0"></polyline>
                <polyline id="Fill-991" points="21 0 39.0864818 12 41 12 22.9135182 0 21 0"></polyline>
                <polyline id="Fill-992" points="15 0 33.0864818 12 35 12 16.9135182 0 15 0"></polyline>
                <polyline id="Fill-993" points="10 0 28.0866193 12 30 12 11.9133807 0 10 0"></polyline>
                <polyline id="Fill-994" points="4 0 22.0866193 12 24 12 5.91338074 0 4 0"></polyline>
                <polyline id="Fill-995" points="0 1.3689352 0 1.82383588 16.1115312 12 18 12 0.584120983 1 0 1.3689352"></polyline>
                <polyline id="Fill-996" points="1 5.22426471 11.1636029 12 13 12 1 4 1 5.22426471"></polyline>
                <polyline id="Fill-997" points="0 8.41341256 5.02122241 12 7 12 0 7 0 8.41341256"></polyline>
                <polyline id="Fill-998" points="1.1405 11.86 1.8595 11.86 1.1405 11.14 1.1405 11.86"></polyline>
                <polyline id="Fill-999" points="197.862069 0 196 0 199 2 199 0.75862069 197.862069 0"></polyline>
                <polyline id="Fill-1000" points="190 0 199 6 199 4.68639053 191.970414 0 190 0"></polyline>
                <polyline id="Fill-1001" points="185 0 199 9 199 7.81101737 186.850551 0 185 0"></polyline>
                <polyline id="Fill-1002" points="179 0 197.086619 12 199 12 180.913381 0 179 0"></polyline>
                <polyline id="Fill-1003" points="173 0 191.086619 12 193 12 174.913381 0 173 0"></polyline>
                <polyline id="Fill-1004" points="168 0 186.086619 12 188 12 169.913381 0 168 0"></polyline>
                <polyline id="Fill-1005" points="162 0 180.086619 12 182 12 163.913381 0 162 0"></polyline>
                <polyline id="Fill-1006" points="157 0 175.086619 12 177 12 158.913381 0 157 0"></polyline>
                <polyline id="Fill-1007" points="151 0 169.086619 12 171 12 152.913381 0 151 0"></polyline>
                <polyline id="Fill-1008" points="146 0 164.086482 12 166 12 147.913518 0 146 0"></polyline>
                <polyline id="Fill-1009" points="139 0 157.086619 12 159 12 140.913381 0 139 0"></polyline>
                <polyline id="Fill-1010" points="134 0 152.086482 12 154 12 135.912082 0 134 0"></polyline>
                <polyline id="Fill-1011" points="128 0 146.086482 12 148 12 129.913518 0 128 0"></polyline>
                <polyline id="Fill-1012" points="123 0 141.086619 12 143 12 124.913381 0 123 0"></polyline>
                <polyline id="Fill-1013" points="117 0 135.086619 12 137 12 118.913381 0 117 0"></polyline>
                <polyline id="Fill-1014" points="111 0 129.086619 12 131 12 112.913381 0 111 0"></polyline>
                <polyline id="Fill-1015" points="106 0 124.086619 12 126 12 107.913381 0 106 0"></polyline>
                <polyline id="Fill-1016" points="100 0 118.086482 12 120 12 101.913518 0 100 0"></polyline>
            </g>
            <rect stroke="#979797" fill="#D8D8D8" x="6.5" y="7.5" width="31" height="21"></rect>
        </g>
        <polygon id="Rectangle" fill-opacity="0.547366696" fill="#FFFFFF" transform="translate(140.8176, 20.5785) rotate(-270) translate(-140.8176, -20.5785)" points="135.817623 -111.603877 142.908963 -111.603877 145.817623 -108.452784 145.817623 152.760877 135.817623 152.760877"></polygon>
        <rect id="Rectangle" fill="#FFFFFF" transform="translate(125.0102, 20.5785) rotate(-270) translate(-125.0102, -20.5785)" x="120.010246" y="-97.4317459" width="10" height="236.020492"></rect>
        <text id="Server-rtmp://192.16" opacity="0.570638021" font-family="RobotoMono-Bold, Roboto Mono" font-size="10" font-weight="bold" fill="#DEDEDE">
            <tspan x="7" y="170.5785">Server </tspan>
            <tspan x="49.0068359" y="170.5785" font-family="RobotoMono-Regular, Roboto Mono" font-weight="normal">rtmp://192.168.0.1</tspan>
            <tspan x="157.024414" y="170.5785"></tspan>
            <tspan x="7" y="183.5785">Size</tspan>
            <tspan x="31.0039062" y="183.5785" font-family="RobotoMono-Medium, Roboto Mono" font-weight="400"> </tspan>
            <tspan x="37.0048828" y="183.5785" font-family="RobotoMono-Regular, Roboto Mono" font-weight="normal">1280x1024</tspan>
            <tspan x="7" y="196.5785">Framerate</tspan>
            <tspan x="61.0087891" y="196.5785" font-family="RobotoMono-Medium, Roboto Mono" font-weight="400"> </tspan>
            <tspan x="67.0097656" y="196.5785" font-family="RobotoMono-Regular, Roboto Mono" font-weight="normal">59.433</tspan>
            <tspan x="103.015625" y="196.5785" font-family="RobotoMono-Medium, Roboto Mono" font-weight="400"></tspan>
            <tspan x="7" y="209.5785" font-family="RobotoMono-Medium, Roboto Mono" font-weight="400"></tspan>
            <tspan x="7" y="222.5785">Aperture</tspan>
            <tspan x="55.0078125" y="222.5785" font-family="RobotoMono-Medium, Roboto Mono" font-weight="400"> </tspan>
            <tspan x="61.0087891" y="222.5785" font-family="RobotoMono-Regular, Roboto Mono" font-weight="normal">f5/6</tspan>
            <tspan x="85.0126953" y="222.5785" font-family="RobotoMono-Medium, Roboto Mono" font-weight="400"></tspan>
            <tspan x="7" y="235.5785">Shutter speed</tspan>
            <tspan x="85.0126953" y="235.5785" font-family="RobotoMono-Medium, Roboto Mono" font-weight="400"> </tspan>
            <tspan x="91.0136719" y="235.5785" font-family="RobotoMono-Regular, Roboto Mono" font-weight="normal">1/60</tspan>
            <tspan x="115.017578" y="235.5785" font-family="RobotoMono-Medium, Roboto Mono" font-weight="400"></tspan>
            <tspan x="7" y="248.5785">ISO</tspan>
            <tspan x="25.0029297" y="248.5785" font-family="RobotoMono-Medium, Roboto Mono" font-weight="400"> </tspan>
            <tspan x="31.0039062" y="248.5785" font-family="RobotoMono-Regular, Roboto Mono" font-weight="normal">200</tspan>
        </text>
        <g id="Group-13" transform="translate(8, 104.5785)" fill="#FFFFFF" fill-opacity="0.864018794">
            <polygon id="Rectangle" transform="translate(4.5, 5) scale(-1, 1) translate(-4.5, -5)" points="0 0 9 0 9 10 2.61910003 10 8.07104383e-13 7.34842834"></polygon>
            <polygon id="Rectangle" transform="translate(18.5, 5) scale(-1, 1) translate(-18.5, -5)" points="14 0 23 0 23 10 16.6191 10 14 7.34842834"></polygon>
            <polygon id="Rectangle" transform="translate(32.5, 5) scale(-1, 1) translate(-32.5, -5)" points="28 0 37 0 37 10 30.6191 10 28 7.34842834"></polygon>
            <polygon id="Rectangle" transform="translate(46.5, 5) scale(-1, 1) translate(-46.5, -5)" points="42 0 51 0 51 10 44.6191 10 42 7.34842834"></polygon>
            <polygon id="Rectangle" transform="translate(61.5, 5) scale(-1, 1) translate(-61.5, -5)" points="57 0 66 0 66 10 59.6191 10 57 7.34842834"></polygon>
            <polygon id="Rectangle" opacity="0.483840216" transform="translate(75.5, 5) scale(-1, 1) translate(-75.5, -5)" points="71 0 80 0 80 10 73.6191 10 71 7.34842834"></polygon>
            <polygon id="Rectangle" opacity="0.483840216" transform="translate(89.5, 5) scale(-1, 1) translate(-89.5, -5)" points="85 0 94 0 94 10 87.6191 10 85 7.34842834"></polygon>
            <polygon id="Rectangle" opacity="0.483840216" transform="translate(103.5, 5) scale(-1, 1) translate(-103.5, -5)" points="99 0 108 0 108 10 101.6191 10 99 7.34842834"></polygon>
            <polygon id="Rectangle" opacity="0.483840216" transform="translate(117.5, 5) scale(-1, 1) translate(-117.5, -5)" points="113 0 122 0 122 10 115.6191 10 113 7.34842834"></polygon>
        </g>
        <text id="FRIDAY,AUG-13th-3124" opacity="0.637416295" font-family="RobotoMono-Medium, Roboto Mono" font-size="10" font-weight="400" fill="#DEDEDE">
            <tspan x="152" y="10">friday,aug 13th 3124</tspan>
        </text>
    </g>
</svg>