<?xml version="1.0" encoding="UTF-8"?>
<svg width="17px" height="19px" viewBox="0 0 17 19" version="1.1" xmlns="http://www.w3.org/2000/svg" xmlns:xlink="http://www.w3.org/1999/xlink">
    <title>icon-discord</title>
    <g id="Symbols" stroke="none" stroke-width="1" fill="none" fill-rule="evenodd">
        <g id="about-and-discord" transform="translate(-229.5782, -13.9206)" fill="#FFFFFF">
            <g id="icon-discord" transform="translate(229.5782, 13.9206)">
                <path d="M15.0085714,0 C16.1062857,0 17,0.874 17,1.957 L17,19 L14.9114286,17.195 L13.736,16.131 L12.4925714,15.0005 L13.0074286,16.758 L1.99142857,16.758 C0.893714286,16.758 0,15.884 0,14.801 L0,1.957 C0,0.874 0.893714286,0 1.99142857,0 L15.0085714,0 L15.0085714,0 Z M11.3672945,12.3787879 C13.5301872,12.3116168 14.362069,10.9202165 14.362069,10.9202165 C14.362069,7.83034803 12.9527633,5.32582735 12.9527633,5.32582735 C11.5434577,4.28947397 10.20266,4.31818182 10.20266,4.31818182 L10.0656442,4.4717954 C11.7294078,4.97078036 12.5025685,5.69047021 12.5025685,5.69047021 C11.4847367,5.14350592 10.4864785,4.87482171 9.55672827,4.7692672 C8.85207546,4.69250028 8.17678318,4.71169201 7.57978566,4.78845893 L7.41340931,4.80765066 C7.07086974,4.83643825 6.23898795,4.96118449 5.19179558,5.41219013 C4.82968233,5.57531983 4.61437175,5.69047021 4.61437175,5.69047021 C4.61437175,5.69047021 5.42667985,4.9323969 7.18831188,4.43341194 L7.09044343,4.31818182 C7.09044343,4.31818182 5.74964573,4.28947397 4.3403401,5.32582735 C4.3403401,5.32582735 2.93103448,7.83034803 2.93103448,10.9202165 C2.93103448,10.9202165 3.75312943,12.3116168 5.91602208,12.3787879 C5.91602208,12.3787879 6.27813533,11.946974 6.57174067,11.5823311 C5.32881141,11.2176883 4.85904287,10.4500191 4.85904287,10.4500191 L5.13307452,10.6131488 L5.17222189,10.6419364 L5.2105537,10.6635271 L5.22197169,10.668325 L5.2603035,10.6899157 C5.50497461,10.8242578 5.74964573,10.9298123 5.97474315,11.0161751 C6.37600378,11.1697089 6.85555916,11.3232428 7.41340931,11.4287973 C8.14742265,11.5631394 9.00866497,11.6111187 9.94820205,11.4383931 C10.4081838,11.3616262 10.8779523,11.2272841 11.3672945,11.025771 C11.7098341,10.9010247 12.091521,10.7187033 12.4927816,10.4596149 C12.4927816,10.4596149 12.0034394,11.2464758 10.7213628,11.6015228 C11.0149681,11.9661657 11.3672945,12.3787879 11.3672945,12.3787879 L11.3672945,12.3787879 Z M6.88785058,8.06060606 C6.31461968,8.06060606 5.86206897,8.51446901 5.86206897,9.06818182 C5.86206897,9.62189462 6.32467636,10.0757576 6.88785058,10.0757576 C7.46108148,10.0757576 7.91363219,9.62189462 7.91363219,9.06818182 C7.92368887,8.51446901 7.46108148,8.06060606 6.88785058,8.06060606 Z M10.4051724,8.06060606 C9.83189655,8.06060606 9.37931034,8.51446901 9.37931034,9.06818182 C9.37931034,9.62189462 9.84195402,10.0757576 10.4051724,10.0757576 C10.9784483,10.0757576 11.4310345,9.62189462 11.4310345,9.06818182 C11.4310345,8.51446901 10.9784483,8.06060606 10.4051724,8.06060606 Z" id="Shape"></path>
            </g>
        </g>
    </g>
</svg>