<?xml version="1.0" encoding="UTF-8"?>
<svg width="88.0000145px" height="80.4312825px" viewBox="0 0 88.0000145 80.4312825" version="1.1" xmlns="http://www.w3.org/2000/svg" xmlns:xlink="http://www.w3.org/1999/xlink">
    <title>loading-logo</title>
    <g id="User-experience" stroke="none" stroke-width="1" fill="none" fill-rule="evenodd">
        <g id="Loading" transform="translate(-676, -453.9999)" stroke="#FFFFFF">
            <path d="M703.461,506.78 L711.490956,506.780668 L712.471421,508.994267 L719.806118,521.761072 L728.467799,506.780667 L736.674,506.78 L749.034702,528.122092 C746.86787,530.058777 744.505058,531.781983 741.97955,533.258511 L732.504131,516.899048 L722.733792,533.913308 L716.960296,533.563372 L707.508736,517.11011 L698.122793,533.318158 C695.594219,531.849063 693.227724,530.133097 691.056538,528.203411 L703.461,506.78 Z M706.452286,454.599137 L719.616,477.33 L715.543957,484.400162 L698.327655,484.400965 L705.766153,496.887819 L706.943959,499.331418 L703.053,506.087 L700.893975,506.090036 L677.651887,505.812274 C676.991487,503.019696 676.601936,500.122905 676.51231,497.150966 L696.041842,497.150861 L684.372202,476.836409 L685.135261,475.500145 L708.525406,475.499855 L698.465576,458.131596 C700.981386,456.700347 703.654349,455.51216 706.452286,454.599137 Z M733.661565,454.636463 C736.456599,455.557113 739.126177,456.752588 741.638104,458.190768 L731.610493,475.499852 L749.782397,475.500144 L753.23876,480.790982 L743.844303,497.150861 L763.48769,497.150966 C763.398114,500.121239 763.00895,503.016449 762.349223,505.807579 L739.124999,505.806865 L737.292,506.087 L733.043804,498.712786 L741.263417,484.400966 L724.800051,484.400163 L722.376281,480.191344 L720.519,477.01 L721.521858,475.253695 L733.661565,454.636463 Z" id="loading-logo"></path>
        </g>
    </g>
</svg>