<?xml version="1.0" encoding="UTF-8"?>
<svg width="102px" height="109.421634px" viewBox="0 0 102 109.421634" version="1.1" xmlns="http://www.w3.org/2000/svg" xmlns:xlink="http://www.w3.org/1999/xlink">
    <title>loading</title>
    <g id="User-experience" stroke="none" stroke-width="1" fill="none" fill-rule="evenodd">
        <g id="Loading" transform="translate(-669, -453.9999)">
            <g id="loading" transform="translate(669, 453.9999)">
                <g id="Group" transform="translate(0, -0)">
                    <path d="M59.4677986,52.7808005 L67.674,52.781 L80.0347022,74.1222255 C77.86787,76.0589106 75.5050581,77.7821174 72.9795498,79.2586447 L63.5041314,62.8991819 L53.7337916,79.9134419 L47.9602955,79.5635055 L38.5087359,63.1102442 L29.1227927,79.318292 C26.5942195,77.8491965 24.2277241,76.1332311 22.0565378,74.2035454 L34.461,52.781 L42.4909562,52.7808017 L43.4714209,54.9944011 L50.8061177,67.7612063 L59.4677986,52.7808005 Z M37.4522862,0.599270858 L50.616,23.33 L46.5439573,30.400296 L29.3276551,30.4010989 L36.7661535,42.8879528 L37.9439585,45.3315522 L34.053,52.088 L31.893975,52.0901697 L8.65188719,51.8124076 C7.991487,49.0198301 7.60193633,46.1230389 7.51231039,43.1511002 L27.0418418,43.1509954 L15.3722016,22.8365427 L16.1352613,21.5002789 L39.5254056,21.4999893 L29.4655762,4.13173005 C31.9813857,2.70048133 34.6543488,1.51229436 37.4522862,0.599270858 Z M64.6615648,0.636597239 C67.4565988,1.55724674 70.1261772,2.75272146 72.638104,4.19090239 L62.6104926,21.4999861 L80.7823973,21.5002782 L84.2387601,26.7911157 L74.844303,43.1509954 L94.4876896,43.1511002 C94.3981139,46.1213734 94.0089495,49.0165833 93.3492229,51.8077125 L70.1249991,51.8069988 L68.291,52.087 L64.0438035,44.7129196 L72.2634171,30.4011 L55.8000514,30.4002966 L53.3762812,26.1914783 L51.519,23.01 L52.5218582,21.2538291 L64.6615648,0.636597239 Z" id="Combined-Shape" stroke="#FFFFFF"></path>
                    <text id="INITIALIZING…" opacity="0.297107515" font-family="RobotoMono-Medium, Roboto Mono" font-size="11" font-weight="400" letter-spacing="1.1733337" fill="#DEDEDE">
                        <tspan x="0" y="106.421634">INITIALIZING…</tspan>
                    </text>
                </g>
            </g>
        </g>
    </g>
</svg>